<svg width="20" height="20" viewBox="0 0 20 20" fill="none" xmlns="http://www.w3.org/2000/svg">
<path d="M12.567 9.43301L9.35911 6.22512C9.20786 6.07904 9.00528 5.9982 8.795 6.00003C8.58473 6.00186 8.38358 6.0862 8.23489 6.23489C8.0862 6.38358 8.00186 6.58473 8.00003 6.795C7.9982 7.00528 8.07904 7.20786 8.22512 7.35911L10.866 10L8.22512 12.6409C8.07904 12.7921 7.9982 12.9947 8.00003 13.205C8.00186 13.4153 8.0862 13.6164 8.23489 13.7651C8.38358 13.9138 8.58473 13.9981 8.795 14C9.00528 14.0018 9.20786 13.921 9.35911 13.7749L12.567 10.567C12.7173 10.4166 12.8018 10.2127 12.8018 10C12.8018 9.78735 12.7173 9.5834 12.567 9.43301Z" fill="#8B4AF2"/>
</svg>
