<svg width="9" height="5" viewBox="0 0 9 5" fill="none" xmlns="http://www.w3.org/2000/svg">
<path d="M4.3334 4.6666L1.12551 1.45872C0.979428 1.30747 0.898594 1.10489 0.900421 0.894612C0.902248 0.684337 0.986591 0.483193 1.13528 0.334501C1.28397 0.185809 1.48512 0.101467 1.69539 0.0996397C1.90567 0.0978125 2.10825 0.178647 2.2595 0.324732L4.90039 2.96562L7.54128 0.324732C7.69253 0.178647 7.89511 0.0978128 8.10539 0.09964C8.31566 0.101467 8.51681 0.18581 8.6655 0.334502C8.81419 0.483194 8.89853 0.684338 8.90036 0.894612C8.90219 1.10489 8.82135 1.30747 8.67527 1.45872L5.46738 4.6666C5.31699 4.81695 5.11304 4.90141 4.90039 4.90141C4.68774 4.90141 4.48379 4.81695 4.3334 4.6666Z" fill="#9B9CAA"/>
</svg>
