<svg width="6" height="8" viewBox="0 0 6 8" fill="none" xmlns="http://www.w3.org/2000/svg">
<path d="M5.06699 3.43301L1.85911 0.225123C1.70786 0.0790372 1.50528 -0.00179691 1.295 3.03166e-05C1.08473 0.00185754 0.883584 0.0861999 0.734892 0.234892C0.5862 0.383584 0.501858 0.584728 0.50003 0.795002C0.498203 1.00528 0.579037 1.20786 0.725123 1.35911L3.36601 4L0.725123 6.64089C0.579037 6.79214 0.498203 6.99472 0.50003 7.205C0.501858 7.41527 0.5862 7.61642 0.734892 7.76511C0.883584 7.9138 1.08473 7.99814 1.295 7.99997C1.50528 8.0018 1.70786 7.92096 1.85911 7.77488L5.06699 4.56699C5.21734 4.4166 5.3018 4.21265 5.3018 4C5.3018 3.78735 5.21734 3.5834 5.06699 3.43301Z" fill="white"/>
</svg>
