<svg width="22" height="30" viewBox="0 0 22 30" fill="none" xmlns="http://www.w3.org/2000/svg">
<path d="M19.2008 11.3996H18.3008V7.79961C18.3008 3.82881 15.0716 0.599609 11.1008 0.599609C7.12998 0.599609 3.90078 3.82881 3.90078 7.79961V11.3996H3.00078C1.51278 11.3996 0.300781 12.6104 0.300781 14.0996V26.6996C0.300781 28.1888 1.51278 29.3996 3.00078 29.3996H19.2008C20.6888 29.3996 21.9008 28.1888 21.9008 26.6996V14.0996C21.9008 12.6104 20.6888 11.3996 19.2008 11.3996ZM6.30078 7.79961C6.30078 5.15241 8.45358 2.99961 11.1008 2.99961C13.748 2.99961 15.9008 5.15241 15.9008 7.79961V11.3996H6.30078V7.79961ZM12.3008 20.666V23.3996C12.3008 24.062 11.7644 24.5996 11.1008 24.5996C10.4372 24.5996 9.90078 24.062 9.90078 23.3996V20.666C9.18678 20.2496 8.70078 19.484 8.70078 18.5996C8.70078 17.276 9.77718 16.1996 11.1008 16.1996C12.4244 16.1996 13.5008 17.276 13.5008 18.5996C13.5008 19.484 13.0148 20.2496 12.3008 20.666Z" fill="white"/>
</svg>
