<svg width="17" height="17" viewBox="0 0 17 17" fill="none" xmlns="http://www.w3.org/2000/svg">
<path d="M12.5 1.7207H4.5C3.96957 1.7207 3.46086 1.93142 3.08579 2.30649C2.71072 2.68156 2.5 3.19027 2.5 3.7207V13.5874C2.49951 13.8127 2.55615 14.0345 2.66463 14.2321C2.7731 14.4296 2.92988 14.5964 3.12031 14.7169C3.31073 14.8374 3.5286 14.9077 3.75355 14.9212C3.97851 14.9347 4.20321 14.8909 4.40667 14.794C4.56667 14.714 4.70667 14.6274 4.85334 14.5407C5.13541 14.3289 5.48071 14.2185 5.83334 14.2274C6.18801 14.2186 6.53539 14.3289 6.82 14.5407C7.31229 14.8838 7.90002 15.0634 8.5 15.054C9.10005 15.0639 9.68792 14.8842 10.18 14.5407C10.4644 14.3284 10.8119 14.218 11.1667 14.2274C11.5194 14.2175 11.8651 14.328 12.1467 14.5407C12.2911 14.6308 12.4402 14.7131 12.5933 14.7874C12.7963 14.884 13.0204 14.9278 13.2448 14.9146C13.4692 14.9015 13.6866 14.8318 13.8769 14.712C14.0671 14.5923 14.224 14.4264 14.333 14.2298C14.4419 14.0331 14.4994 13.8122 14.5 13.5874V3.7207C14.5 3.19027 14.2893 2.68156 13.9142 2.30649C13.5391 1.93142 13.0304 1.7207 12.5 1.7207ZM8.5 11.054H5.83334C5.65653 11.054 5.48696 10.9838 5.36193 10.8588C5.23691 10.7338 5.16667 10.5642 5.16667 10.3874C5.16667 10.2106 5.23691 10.041 5.36193 9.91597C5.48696 9.79094 5.65653 9.7207 5.83334 9.7207H8.5C8.67681 9.7207 8.84638 9.79094 8.97141 9.91597C9.09643 10.041 9.16667 10.2106 9.16667 10.3874C9.16667 10.5642 9.09643 10.7338 8.97141 10.8588C8.84638 10.9838 8.67681 11.054 8.5 11.054ZM11.1667 8.38737H5.83334C5.65653 8.38737 5.48696 8.31713 5.36193 8.19211C5.23691 8.06708 5.16667 7.89751 5.16667 7.7207C5.16667 7.54389 5.23691 7.37432 5.36193 7.2493C5.48696 7.12427 5.65653 7.05404 5.83334 7.05404H11.1667C11.3435 7.05404 11.5131 7.12427 11.6381 7.2493C11.7631 7.37432 11.8333 7.54389 11.8333 7.7207C11.8333 7.89751 11.7631 8.06708 11.6381 8.19211C11.5131 8.31713 11.3435 8.38737 11.1667 8.38737ZM11.1667 5.7207H5.83334C5.65653 5.7207 5.48696 5.65047 5.36193 5.52544C5.23691 5.40042 5.16667 5.23085 5.16667 5.05404C5.16667 4.87723 5.23691 4.70766 5.36193 4.58263C5.48696 4.45761 5.65653 4.38737 5.83334 4.38737H11.1667C11.3435 4.38737 11.5131 4.45761 11.6381 4.58263C11.7631 4.70766 11.8333 4.87723 11.8333 5.05404C11.8333 5.23085 11.7631 5.40042 11.6381 5.52544C11.5131 5.65047 11.3435 5.7207 11.1667 5.7207Z" fill="#665266"/>
</svg>
