<svg width="166" height="29" viewBox="0 0 166 29" fill="none" xmlns="http://www.w3.org/2000/svg">
<g clip-path="url(#clip0_16661_182381)">
<path d="M39.3555 20.2929L40.7344 17.3156C42.0068 18.1393 43.945 18.6976 45.6952 18.6976C47.6062 18.6976 48.3217 18.1915 48.3217 17.395C48.3217 15.0554 39.6996 17.4472 39.6996 11.7308C39.6996 9.01903 42.1404 7.10374 46.3065 7.10374C48.2696 7.10374 50.4455 7.55533 51.7995 8.35412L50.4206 11.3065C49.0145 10.5077 47.6085 10.2422 46.3088 10.2422C44.4522 10.2422 43.6552 10.8277 43.6552 11.572C43.6552 14.0183 52.2772 11.6514 52.2772 17.2883C52.2772 19.948 49.8092 21.836 45.539 21.836C43.1253 21.836 40.6845 21.1711 39.3577 20.2929H39.3555Z" fill="white"/>
<path d="M77.3987 7.31566V15.2128C77.3987 19.4133 75.0371 21.8346 70.7668 21.8346C68.8038 21.8346 67.1849 21.3036 66.0709 19.8127C64.9841 21.2491 63.4173 21.8346 61.3478 21.8346C57.0503 21.8346 54.7409 19.4155 54.7409 15.2128V7.31566H58.8798V14.8928C58.8798 17.2597 59.6496 18.349 61.3999 18.349C63.1501 18.349 63.9992 17.2597 63.9992 14.8928V7.31566H68.1381V14.8928C68.1381 17.2597 68.9872 18.349 70.7374 18.349C72.4876 18.349 73.2574 17.2597 73.2574 14.8928V7.31566H77.3987Z" fill="white"/>
<path d="M81.1116 7.31566H85.2506V21.6213H81.1116V7.31566Z" fill="white"/>
<path d="M104.644 14.4699C104.644 18.9631 101.539 21.836 97.534 21.836C95.7566 21.836 94.2962 21.2778 93.2366 20.1068V26.7808H89.0976V7.31705H93.0509V8.96456C94.0856 7.71418 95.6253 7.10374 97.534 7.10374C101.539 7.10374 104.644 9.97667 104.644 14.4699ZM100.45 14.4699C100.45 11.9963 98.8857 10.5077 96.8163 10.5077C94.7468 10.5077 93.1822 11.9963 93.1822 14.4699C93.1822 16.9434 94.7468 18.4321 96.8163 18.4321C98.8857 18.4321 100.45 16.9434 100.45 14.4699Z" fill="white"/>
<path d="M118.172 17.1295L120.373 19.5236C119.046 21.0395 117.056 21.836 114.484 21.836C109.55 21.836 106.339 18.7248 106.339 14.4699C106.339 10.2149 109.577 7.10374 113.981 7.10374C118.014 7.10374 121.331 9.76336 121.355 14.336L110.795 16.3829C111.407 17.7921 112.731 18.5092 114.59 18.5092C116.103 18.5092 117.189 18.0576 118.172 17.1272V17.1295ZM110.399 14.0455L117.35 12.6885C116.952 11.2271 115.706 10.2422 113.981 10.2422C111.912 10.2422 110.478 11.6242 110.399 14.0455Z" fill="white"/>
<path d="M138.52 7.31647V19.228C138.52 24.545 135.735 26.9935 130.747 26.9935C128.121 26.9935 125.574 26.3286 123.93 25.0261L125.574 22.0487C126.767 23.0313 128.624 23.6441 130.403 23.6441C133.188 23.6441 134.384 22.3415 134.384 19.7613V19.2825C133.297 20.3717 131.809 20.93 130.166 20.93C126.584 20.93 124.064 18.9353 124.064 14.4943V7.3142H128.202V13.8815C128.202 16.3006 129.264 17.3649 131.094 17.3649C132.923 17.3649 134.384 16.1418 134.384 13.5094V7.3142H138.523L138.52 7.31647Z" fill="white"/>
<path d="M156.851 7.31705V21.6227H152.898V19.9752C151.863 21.2256 150.351 21.836 148.44 21.836C144.407 21.836 141.303 18.9631 141.303 14.4699C141.303 9.97667 144.407 7.10374 148.44 7.10374C150.19 7.10374 151.678 7.66199 152.712 8.83294V7.31705H156.851ZM152.792 14.4699C152.792 11.9963 151.2 10.5077 149.158 10.5077C147.115 10.5077 145.496 11.9963 145.496 14.4699C145.496 16.9434 147.088 18.4321 149.158 18.4321C151.227 18.4321 152.792 16.9434 152.792 14.4699Z" fill="url(#paint0_linear_16661_182381)"/>
<path d="M160.166 3.00887C160.166 1.7063 161.201 0.696461 162.74 0.696461C164.28 0.696461 165.315 1.6541 165.315 2.92945C165.315 4.31145 164.28 5.32129 162.74 5.32129C161.201 5.32129 160.166 4.31145 160.166 3.00887ZM160.671 7.316H164.81V21.6216H160.671V7.316Z" fill="url(#paint1_linear_16661_182381)"/>
<path d="M83.1815 5.67142C84.6483 5.67142 85.8374 4.47966 85.8374 3.00954C85.8374 1.53942 84.6483 0.347656 83.1815 0.347656C81.7147 0.347656 80.5256 1.53942 80.5256 3.00954C80.5256 4.47966 81.7147 5.67142 83.1815 5.67142Z" fill="url(#paint2_linear_16661_182381)"/>
<path d="M21.4092 0.489258C24.6876 -0.62253 28.4667 0.167248 31.0342 2.8584V2.86133C34.5185 6.51253 34.3193 12.3351 30.7559 15.9092L30.1758 16.4902L25.5928 21.083C25.8789 22.801 26.6687 24.9647 28.7568 26.2334C29.4337 26.6464 29.2459 27.6701 28.4648 27.8154C26.2804 28.2203 23.1039 28.2518 20.7354 25.9512L19.749 26.9404C18.3067 28.3859 15.9657 28.3859 14.5234 26.9404C13.0814 25.4949 13.0813 23.1486 14.5234 21.7031L22.9893 13.2178C23.5507 12.6529 24.2979 12.3441 25.0879 12.251C25.8124 12.167 26.5127 11.8479 27.0674 11.292C28.4078 9.94857 28.3755 7.74887 26.9717 6.44629C25.6879 5.25302 23.6321 5.2737 22.3711 6.49219C21.7418 7.10033 21.4023 7.89241 21.3525 8.7002C21.3004 9.53275 20.9722 10.3222 20.3838 10.9121L12.7803 18.5332C10.9464 20.3711 7.97363 20.371 6.13965 18.5332L4.09961 16.4883L3.38867 15.7754C-0.211396 12.1672 -0.211396 6.31521 3.38867 2.70703C5.11839 0.975726 7.36166 0.0740483 9.62793 0.00585938C11.8762 -0.0622173 13.0222 2.70869 11.4307 4.30176L11.2969 4.43555C10.8961 4.83721 10.3483 5.03783 9.78223 5.05371C8.95586 5.07644 8.13819 5.4024 7.50879 6.0332C6.16839 7.37663 6.20069 9.57633 7.60449 10.8789C8.88605 12.07 10.9349 12.0515 12.1982 10.8398C12.8752 10.1908 13.2169 9.33041 13.2305 8.46582C13.2419 7.75343 13.5639 7.0818 14.0664 6.57812L17.9062 2.72949C18.898 1.73554 20.0824 0.938578 21.4092 0.489258ZM24.624 7.40527C25.5344 7.40527 26.2725 8.14522 26.2725 9.05762C26.2724 9.96993 25.5343 10.709 24.624 10.709C23.7138 10.7089 22.9757 9.96991 22.9756 9.05762C22.9756 8.14524 23.7137 7.40531 24.624 7.40527ZM10.0049 6.84082C10.915 6.84103 11.6523 7.58091 11.6523 8.49316C11.6523 9.40543 10.915 10.1453 10.0049 10.1455C9.09453 10.1455 8.35645 9.40556 8.35645 8.49316C8.35646 7.58078 9.09454 6.84082 10.0049 6.84082Z" fill="url(#paint3_linear_16661_182381)"/>
</g>
<defs>
<linearGradient id="paint0_linear_16661_182381" x1="59.4591" y1="30.8722" x2="67.7688" y2="-20.0393" gradientUnits="userSpaceOnUse">
<stop stop-color="#8350CB"/>
<stop offset="1" stop-color="#FE6283"/>
</linearGradient>
<linearGradient id="paint1_linear_16661_182381" x1="-202.648" y1="36.0383" x2="-201.25" y2="-0.707382" gradientUnits="userSpaceOnUse">
<stop stop-color="#8350CB"/>
<stop offset="1" stop-color="#FE6283"/>
</linearGradient>
<linearGradient id="paint2_linear_16661_182381" x1="76.1149" y1="13.822" x2="89.2432" y2="-6.1729" gradientUnits="userSpaceOnUse">
<stop stop-color="#8350CB"/>
<stop offset="1" stop-color="#FE6283"/>
</linearGradient>
<linearGradient id="paint3_linear_16661_182381" x1="14.9293" y1="34.7029" x2="36.3734" y2="11.8337" gradientUnits="userSpaceOnUse">
<stop stop-color="#8350CB"/>
<stop offset="1" stop-color="#FE6283"/>
</linearGradient>
<clipPath id="clip0_16661_182381">
<rect width="164.625" height="28.0213" fill="white" transform="translate(0.6875)"/>
</clipPath>
</defs>
</svg>
