<svg width="17" height="17" viewBox="0 0 17 17" fill="none" xmlns="http://www.w3.org/2000/svg" >
<path d="M13.7446 3.71729L8.90457 1.48729L8.82957 1.45729C8.61301 1.40226 8.38613 1.40226 8.16957 1.45729L8.09457 1.48729L3.25457 3.71729C3.02596 3.82254 2.83444 3.99436 2.70509 4.21025C2.57573 4.42614 2.51456 4.67605 2.52957 4.92729L2.69957 7.76729C2.79604 9.40075 3.35491 10.9731 4.31102 12.301C5.26712 13.629 6.58105 14.6577 8.09957 15.2673C8.22684 15.3246 8.36501 15.3536 8.50457 15.3523C8.63723 15.3543 8.7687 15.327 8.88957 15.2723C10.41 14.6642 11.726 13.6361 12.6839 12.3081C13.6419 10.98 14.2023 9.40688 14.2996 7.77229L14.4696 4.93229C14.4856 4.68023 14.4249 4.42922 14.2955 4.21234C14.1661 3.99545 13.974 3.82285 13.7446 3.71729ZM11.1246 7.21729L8.45457 10.2173C8.41113 10.267 8.35828 10.3076 8.29907 10.3368C8.23986 10.366 8.17545 10.3831 8.10957 10.3873H8.08457C7.95893 10.3882 7.83754 10.3418 7.74457 10.2573L5.90957 8.56729C5.8121 8.47711 5.75445 8.35191 5.74929 8.21923C5.74414 8.08655 5.7919 7.95725 5.88207 7.85979C5.97224 7.76232 6.09744 7.70466 6.23012 7.69951C6.36281 7.69435 6.4921 7.74211 6.58957 7.83229L8.04957 9.17729L10.3746 6.55729C10.4638 6.46437 10.5855 6.40949 10.7142 6.40409C10.8429 6.39868 10.9688 6.44318 11.0655 6.52829C11.1622 6.6134 11.2223 6.73256 11.2333 6.86093C11.2444 6.98929 11.2054 7.11695 11.1246 7.21729Z" fill="#665266"/>
</svg>
