<svg width="19" height="20" viewBox="0 0 19 20" fill="none" xmlns="http://www.w3.org/2000/svg">
<circle cx="9.5968" cy="10.0105" r="6.4" transform="rotate(10.6382 9.5968 10.0105)" fill="url(#paint0_linear_16661_182948)"/>
<path fill-rule="evenodd" clip-rule="evenodd" d="M8.63684 15.1212C11.4594 15.6513 14.1773 13.793 14.7074 10.9705C15.2376 8.14798 13.3793 5.43009 10.5568 4.89992C7.73423 4.36975 5.01634 6.22807 4.48617 9.05059C3.956 11.8731 5.81432 14.591 8.63684 15.1212ZM8.41531 16.3005C11.8892 16.9531 15.2343 14.6659 15.8868 11.192C16.5393 7.71816 14.2522 4.37306 10.7783 3.72055C7.30441 3.06803 3.95931 5.35519 3.3068 8.82906C2.65428 12.3029 4.94144 15.648 8.41531 16.3005Z" fill="url(#paint1_linear_16661_182948)"/>
<path fill-rule="evenodd" clip-rule="evenodd" d="M8.78371 14.3344C11.172 14.783 13.4717 13.2106 13.9204 10.8223C14.369 8.43402 12.7965 6.13426 10.4083 5.68566C8.01997 5.23705 5.72021 6.80948 5.27161 9.19776C4.823 11.586 6.39542 13.8858 8.78371 14.3344ZM8.63602 15.1207C11.4585 15.6508 14.1764 13.7925 14.7066 10.97C15.2368 8.14747 13.3785 5.42958 10.5559 4.89941C7.73342 4.36924 5.01553 6.22756 4.48536 9.05008C3.95519 11.8726 5.8135 14.5905 8.63602 15.1207Z" fill="#B67A14"/>
<path d="M12.5992 8.71099C12.2069 8.09007 11.5125 7.79907 10.8437 7.89955C10.5731 7.94008 10.317 8.05393 10.0905 8.21348L9.21328 8.83127C9.09846 8.91213 9.01212 9.03249 8.98367 9.17203C8.94917 9.34135 8.85198 9.49797 8.69842 9.60109C8.41182 9.79366 8.01883 9.72353 7.81742 9.44345C7.5967 9.13714 7.67176 8.70413 7.97795 8.48849C8.12174 8.38722 8.29029 8.35244 8.44935 8.3777C8.55831 8.39494 8.67059 8.37542 8.76214 8.31095L8.79265 8.28946C9.15617 8.03383 9.03904 7.44844 8.60606 7.38095C8.16961 7.31281 7.70677 7.40906 7.3117 7.68691C6.48932 8.26609 6.27342 9.41552 6.82958 10.2536L7.25457 10.8941C7.5379 11.321 8.10709 11.428 8.52603 11.1329L10.2629 9.90972C10.3973 9.81501 10.4893 9.67171 10.53 9.51002C10.5694 9.35314 10.6636 9.20981 10.8065 9.113C11.093 8.91902 11.4873 8.98895 11.6891 9.26955C11.9098 9.57586 11.8348 10.0089 11.5286 10.2245C11.4019 10.3138 11.2561 10.3514 11.1143 10.3419C10.9596 10.3317 10.8051 10.3655 10.6768 10.4563L8.74288 11.8182C8.41341 12.0503 8.32685 12.5111 8.54966 12.8469C8.77248 13.1827 9.22072 13.2669 9.55019 13.0348L9.77545 12.8762C10.1441 13.413 10.7534 13.5208 11.1865 13.5198C11.3414 13.5194 11.4152 13.3251 11.3008 13.2197C10.948 12.8956 10.8763 12.4426 10.8848 12.0949L12.0644 11.2641C12.8786 10.6903 13.1315 9.55387 12.5991 8.71144L12.5992 8.71099Z" fill="#A16B0E"/>
<path d="M8.30401 9.38535C8.4783 9.41809 8.64688 9.29936 8.68054 9.12017C8.7142 8.94097 8.60019 8.76917 8.4259 8.73643C8.2516 8.70369 8.08302 8.82241 8.04936 9.00161C8.0157 9.18081 8.12971 9.35261 8.30401 9.38535Z" fill="#A16B0E"/>
<path d="M11.0823 10.0227C11.2566 10.0555 11.4252 9.93674 11.4588 9.75754C11.4925 9.57835 11.3785 9.40654 11.2042 9.3738C11.0299 9.34106 10.8613 9.45979 10.8276 9.63898C10.794 9.81818 10.908 9.98999 11.0823 10.0227Z" fill="#A16B0E"/>
<defs>
<linearGradient id="paint0_linear_16661_182948" x1="2.7968" y1="-0.389452" x2="14.3968" y2="15.6105" gradientUnits="userSpaceOnUse">
<stop stop-color="#AD7003"/>
<stop offset="0.998844" stop-color="#FFE034"/>
</linearGradient>
<linearGradient id="paint1_linear_16661_182948" x1="12.8177" y1="3.69664" x2="13.059" y2="17.5798" gradientUnits="userSpaceOnUse">
<stop stop-color="#FFF2BB"/>
<stop offset="1" stop-color="#B47507"/>
</linearGradient>
</defs>
</svg>
