<svg width="17" height="17" viewBox="0 0 17 17" fill="none" xmlns="http://www.w3.org/2000/svg">
<g clip-path="url(#clip0_16661_183450)">
<mask id="mask0_16661_183450" style="mask-type:luminance" maskUnits="userSpaceOnUse" x="0" y="0" width="17" height="17">
<path d="M0.5 0.386719H16.5V16.3867H0.5V0.386719Z" fill="white"/>
</mask>
<g mask="url(#mask0_16661_183450)">
<path fill-rule="evenodd" clip-rule="evenodd" d="M9.26937 0.65432C8.81893 0.297518 8.18169 0.297518 7.73125 0.65432L6.70329 1.46854C6.47042 1.65298 6.17887 1.74758 5.88191 1.73504L4.57103 1.67967C3.99657 1.65541 3.48105 2.02943 3.32664 2.58248L2.97428 3.84454C2.89447 4.13043 2.71427 4.37811 2.46665 4.54224L1.37353 5.26688C0.894501 5.58445 0.69759 6.1896 0.898213 6.72768L1.35603 7.95552C1.45974 8.23366 1.45974 8.53978 1.35603 8.81792L0.898213 10.0458C0.69759 10.5838 0.894501 11.189 1.37353 11.5066L2.46665 12.2312C2.71427 12.3953 2.89447 12.643 2.97428 12.9289L3.32664 14.1909C3.48105 14.744 3.99657 15.118 4.57103 15.0938L5.88191 15.0384C6.17887 15.0259 6.47042 15.1205 6.70329 15.3049L7.73125 16.1191C8.18169 16.4759 8.81893 16.4759 9.26937 16.1191L10.2973 15.3049C10.5302 15.1205 10.8217 15.0259 11.1187 15.0384L12.4296 15.0938C13.0041 15.118 13.5196 14.744 13.674 14.1909L14.0263 12.9289C14.1062 12.643 14.2864 12.3953 14.534 12.2312L15.6271 11.5066C16.1061 11.189 16.303 10.5838 16.1024 10.0458L15.6446 8.81792C15.5409 8.53978 15.5409 8.23366 15.6446 7.95552L16.1024 6.72768C16.303 6.1896 16.1061 5.58445 15.6271 5.26688L14.534 4.54224C14.2864 4.37811 14.1062 4.13043 14.0263 3.84454L13.674 2.58248C13.5196 2.02943 13.0041 1.65541 12.4296 1.67967L11.1187 1.73504C10.8217 1.74758 10.5302 1.65298 10.2973 1.46854L9.26937 0.65432ZM7.20396 7.78077C6.80405 7.38086 6.1557 7.38086 5.7558 7.78077C5.3559 8.18067 5.3559 8.82903 5.7558 9.22893L7.16226 10.6354C7.56213 11.0353 8.21052 11.0353 8.61039 10.6354L11.3036 7.94218C11.7035 7.54227 11.7035 6.89392 11.3036 6.49402C10.9037 6.09411 10.2553 6.09411 9.85545 6.49402L7.88633 8.46314L7.20396 7.78077Z" fill="#665266"/>
</g>
</g>
<defs>
<clipPath id="clip0_16661_183450">
<rect width="16" height="16" fill="white" transform="translate(0.5 0.386719)"/>
</clipPath>
</defs>
</svg>
